<svg id="Livello_1" data-name="Livello 1" xmlns="http://www.w3.org/2000/svg" viewBox="0 0 249.45 249.45"><defs><style>.cls-1{fill:#003745;}.cls-2{fill:#ff2030;}.cls-3{fill:none;}</style></defs><path class="cls-1" d="M106.31,163.87a57.84,57.84,0,0,0,2.72,6.39l14.57,30.32c2.78,5.77,5.63,11.66,10.07,16.29a28.67,28.67,0,0,0,24.38,8.64c7-1,13.32-4.88,19.38-8.62l31.35-19.39c4.49-2.78,8.56-5.2,11.88-9.38A30.08,30.08,0,0,0,226.39,176a28.68,28.68,0,0,0-.62-15c-2-6.29-6.13-11.67-10.16-16.91l-21.48-28c-2.91-3.79-6.13-7.79-10.72-9.08-5.89-1.65-11.91,1.68-17.12,4.88l-50.81,31.17c-3.68,2.26-7.57,4.74-9.38,8.67S104.92,159.78,106.31,163.87Z"/><path class="cls-2" d="M139.6,184.51a61.3,61.3,0,0,0,20.78,15.74,14.61,14.61,0,0,0,3.14,1c5.82,1.16,12-1,17.29-3.95v0c5.74-2.92,11.6-7.23,13.9-13.23a15.83,15.83,0,0,0,.85-3.18,61.39,61.39,0,0,0-2.24-26,100.69,100.69,0,0,0-5-13.32l-14.76,8.31c.68,1.73,1.33,3.44,1.93,5.14a98,98,0,0,1,4.25,15.86,38,38,0,0,1,.42,11.88q-.64,4.17-2.88,5.82-2.73,1.53-7.1-.36a38.06,38.06,0,0,1-9.82-6.69,97.37,97.37,0,0,1-11.15-12.05c-1.06-1.33-2.1-2.71-3.14-4.12l-14.74,8.3A101,101,0,0,0,139.6,184.51Z"/><path class="cls-3" d="M109.32,109.48a14.61,14.61,0,0,1,.85-3.18c2.29-6,8.16-10.3,13.89-13.23v0a40.93,40.93,0,0,1,4.52-2.18,111.27,111.27,0,0,0,1-15,86.48,86.48,0,0,0-.72-11.34,55.39,55.39,0,0,0-2.06-9.64,20.14,20.14,0,0,0-3.51-6.79,7.71,7.71,0,0,0-5-3h-.9c-2.75,0-5.18,1.4-7.27,4.2a36.79,36.79,0,0,0-5.3,10.9,90,90,0,0,0-3.33,14.82,113.25,113.25,0,0,0-1.17,16.16,84.43,84.43,0,0,0,.72,11.25,50.19,50.19,0,0,0,2.16,9.56,20.19,20.19,0,0,0,3.59,6.7,7.83,7.83,0,0,0,2.09,1.71A52,52,0,0,1,109.32,109.48Z"/><path class="cls-3" d="M148.66,112.85c-.16.22-.29.45-.45.66a39.34,39.34,0,0,1-13,11.07,34,34,0,0,1-8.19,3.06c.67,2.44,1.46,5,2.4,7.68.59,1.7,1.24,3.42,1.93,5.14L158.79,125c-1-1.41-2.08-2.79-3.14-4.11C153.26,117.86,150.93,115.21,148.66,112.85Z"/><path class="cls-3" d="M125.81,103.94a11.14,11.14,0,0,0-.92,2.79c0-.07,0-.12.07-.19C125.26,105.7,125.54,104.82,125.81,103.94Z"/><path class="cls-1" d="M127,127.64a44.08,44.08,0,0,1-10.2,1.14h-.72a29.29,29.29,0,0,1-6.26-.86,76.86,76.86,0,0,0,1.75,7.53,104.27,104.27,0,0,0,5,13.33l14.77-8.32c-.69-1.72-1.34-3.44-1.93-5.14C128.44,132.63,127.65,130.08,127,127.64Z"/><path class="cls-1" d="M165.27,105.86a70.76,70.76,0,0,0-9.1-8.63,54,54,0,0,0-11.67-7.11,15.09,15.09,0,0,0-3.15-1c-4.22-.84-8.64.09-12.76,1.77a40.93,40.93,0,0,0-4.52,2.18v0c-5.73,2.93-11.6,7.23-13.89,13.23a14.61,14.61,0,0,0-.85,3.18,52,52,0,0,0-.42,11,5.94,5.94,0,0,0,2.94.79q4.32,0,7.55-4.11a37.47,37.47,0,0,0,5.5-10.44,11.14,11.14,0,0,1,.92-2.79,6.07,6.07,0,0,1,1.78-2.18c1.82-1,4.18-.9,7.09.36a37.89,37.89,0,0,1,9.82,6.69c1.36,1.21,2.75,2.59,4.16,4,2.27,2.36,4.6,5,7,8,1.06,1.32,2.11,2.7,3.14,4.11l14.75-8.3A101.11,101.11,0,0,0,165.27,105.86Z"/><path class="cls-2" d="M141.35,89.14a15.09,15.09,0,0,1,3.15,1,54,54,0,0,1,11.67,7.11,61.15,61.15,0,0,0,2.4-16.85,60.21,60.21,0,0,0-2.14-16A43.19,43.19,0,0,0,150,50.64a34.23,34.23,0,0,0-10.69-9.73A30.11,30.11,0,0,0,124.52,37q-8.91,0-14.7,4a31.08,31.08,0,0,0-9.36,10.27L100.34,37l-2.66-2A64.06,64.06,0,0,1,83,40.37,75.22,75.22,0,0,1,64.8,42.51v3.22q2.33,0,4.47,3t2.14,8.12V160.57q0,5.18-2.23,8.12t-4.56,2.95v3.21H107v-3.21c-1.43,0-2.89-.87-4.37-2.59s-2.24-4.32-2.24-7.77v-38a29,29,0,0,0,6.79,3.84,19,19,0,0,0,2.67.84,29.29,29.29,0,0,0,6.26.86h.72a44.08,44.08,0,0,0,10.2-1.14,34,34,0,0,0,8.19-3.06,39.34,39.34,0,0,0,13-11.07c.16-.21.29-.44.45-.66-1.41-1.45-2.8-2.83-4.16-4a37.89,37.89,0,0,0-9.82-6.69c-2.91-1.26-5.27-1.37-7.09-.36a6.07,6.07,0,0,0-1.78,2.18c-.27.88-.55,1.76-.85,2.6,0,.07,0,.12-.07.19a37.47,37.47,0,0,1-5.5,10.44q-3.23,4.11-7.55,4.11a5.94,5.94,0,0,1-2.94-.79,7.83,7.83,0,0,1-2.09-1.71,20.19,20.19,0,0,1-3.59-6.7,50.19,50.19,0,0,1-2.16-9.56,84.43,84.43,0,0,1-.72-11.25,113.25,113.25,0,0,1,1.17-16.16,90,90,0,0,1,3.33-14.82,36.79,36.79,0,0,1,5.3-10.9c2.09-2.8,4.52-4.2,7.27-4.2h.9a7.71,7.71,0,0,1,5,3,20.14,20.14,0,0,1,3.51,6.79,55.39,55.39,0,0,1,2.06,9.64,86.48,86.48,0,0,1,.72,11.34,111.27,111.27,0,0,1-1,15C132.71,89.23,137.13,88.3,141.35,89.14Z"/></svg>