<svg id="Livello_1" data-name="Livello 1" xmlns="http://www.w3.org/2000/svg" viewBox="0 0 249.45 249.45"><defs><style>.cls-1{fill:#f4bb47;}.cls-2{fill:#770417;}.cls-3{fill:#f9e4b7;}</style></defs><path class="cls-1" d="M168.47,76.83c-2.15-12.15-6.32-24.15-13.38-34.35A22,22,0,0,0,152,39c-6.14-5.7-15.23-7.67-23.75-8v0c-9.07-.73-19.32.12-26.53,5.65a21.71,21.71,0,0,0-3.38,3.2c-8,9.5-13.25,21-16.53,32.95A145.51,145.51,0,0,0,78,92.48l23.94.9c.46-2.58.94-5.13,1.49-7.62A137,137,0,0,1,110,63.5q3.8-9.37,8.28-14.63,3.87-4.54,7.78-4.88,4.42.19,8.29,5.69,4,5.66,6.88,15.34a138.38,138.38,0,0,1,4.51,22.77q.43,3.58.73,7.29l23.92.91A143,143,0,0,0,168.47,76.83Z"/><path class="cls-2" d="M54.48,103.09A82,82,0,0,0,53,112.8l-4.87,47.32c-.93,9-1.85,18.22.07,27.08,2.69,12.38,11.33,23.5,23,28.47,9.27,4,19.67,4,29.74,4l52.13-.16c7.47,0,14.16.07,21.26-2.51a42.54,42.54,0,0,0,15.91-10.42A40.75,40.75,0,0,0,200.59,188c2.2-9.08,1.24-18.59.27-27.89l-5.19-49.59c-.71-6.71-1.63-13.92-6.21-18.87-5.87-6.35-15.58-6.79-24.23-6.8l-84.3,0c-6.12,0-12.64.11-17.73,3.5S55.82,97.13,54.48,103.09Z"/><path class="cls-3" d="M108.09,123.35h16v39H149V175H108.09Z"/></svg>