<svg id="Livello_1" data-name="Livello 1" xmlns="http://www.w3.org/2000/svg" viewBox="0 0 249.45 249.45"><defs><style>.cls-1{fill:#f9e4b7;}.cls-2{fill:#003745;}.cls-3{fill:#ff2030;}.cls-4{fill:#f0dec2;}</style></defs><rect class="cls-1" width="249.45" height="249.45" transform="translate(249.45 0) rotate(90)"/><path class="cls-2" d="M169.2,74c-2.17-12.3-6.39-24.43-13.53-34.75a21.68,21.68,0,0,0-3.11-3.55c-6.21-5.77-15.41-7.76-24-8.14v0c-9.19-.73-19.55.12-26.85,5.72a22.21,22.21,0,0,0-3.42,3.24c-8.08,9.61-13.41,21.3-16.72,33.34a147.37,147.37,0,0,0-3.9,20l24.23.92c.46-2.62,1-5.2,1.5-7.72a140.32,140.32,0,0,1,6.69-22.52q3.86-9.48,8.38-14.8,3.92-4.6,7.88-4.94c3,.13,5.78,2,8.38,5.76s5,9,7,15.51a139.25,139.25,0,0,1,4.57,23.05c.3,2.42.54,4.88.74,7.37l24.2.92A143,143,0,0,0,169.2,74Z"/><path class="cls-3" d="M53.87,100.57a83.66,83.66,0,0,0-1.48,9.83l-4.93,47.87c-.94,9.12-1.87,18.43.07,27.4,2.73,12.53,11.46,23.77,23.25,28.8,9.38,4,19.9,4,30.1,4l52.73-.16c7.57,0,14.34.08,21.51-2.53a43,43,0,0,0,16.1-10.55,41.2,41.2,0,0,0,10.48-18.74c2.23-9.19,1.26-18.82.28-28.22l-5.26-50.18C196,101.31,195.08,94,190.44,89c-5.94-6.42-15.76-6.87-24.51-6.88l-85.3-.05c-6.18,0-12.78.11-17.93,3.54S55.23,94.54,53.87,100.57Z"/><path class="cls-4" d="M104.18,157.78,117.3,157a10,10,0,0,0,1.73,4.87,7.28,7.28,0,0,0,6.09,2.71,6.76,6.76,0,0,0,4.55-1.38,4.19,4.19,0,0,0,1.6-3.22,4.08,4.08,0,0,0-1.53-3.1c-1-.91-3.36-1.78-7.06-2.59q-9.08-2-12.93-5.42a10.88,10.88,0,0,1-3.9-8.61,11.7,11.7,0,0,1,2-6.5,13.25,13.25,0,0,1,6-4.81q4-1.75,11-1.75,8.55,0,13.05,3.18t5.34,10.12l-13,.76a6.08,6.08,0,0,0-6.76-5.75,5.52,5.52,0,0,0-3.62,1A3.14,3.14,0,0,0,118.6,139a2.5,2.5,0,0,0,1,1.92q1,.88,4.62,1.64,9,2,13,3.95a13.66,13.66,0,0,1,5.69,4.94,12.52,12.52,0,0,1,1.78,6.61,14.14,14.14,0,0,1-2.37,7.91,14.9,14.9,0,0,1-6.64,5.5,27,27,0,0,1-10.75,1.87q-11.39,0-15.76-4.39A17.2,17.2,0,0,1,104.18,157.78Z"/></svg>