<svg id="Livello_1" data-name="Livello 1" xmlns="http://www.w3.org/2000/svg" viewBox="0 0 249.45 249.45"><defs><style>.cls-1{fill:#ff2030;}.cls-2{fill:#003745;}.cls-3{fill:#f0dec2;}</style></defs><path class="cls-1" d="M168.9,73.44c-2.16-12.21-6.35-24.26-13.45-34.51a20.9,20.9,0,0,0-3.08-3.52c-6.17-5.74-15.3-7.71-23.86-8.08v0c-9.12-.72-19.41.12-26.66,5.69a21.42,21.42,0,0,0-3.4,3.21c-8,9.55-13.31,21.15-16.6,33.11A145.31,145.31,0,0,0,78,89.16l24.06.91c.45-2.6.94-5.16,1.49-7.66A137.73,137.73,0,0,1,110.18,60q3.81-9.4,8.32-14.7,3.89-4.56,7.82-4.9,4.44.2,8.33,5.72t6.91,15.41a138.48,138.48,0,0,1,4.53,22.88c.3,2.4.54,4.85.74,7.32l24,.92A144.32,144.32,0,0,0,168.9,73.44Z"/><path class="cls-2" d="M54.36,99.82a85.26,85.26,0,0,0-1.47,9.76L48,157.13c-.93,9.06-1.86,18.31.08,27.21,2.7,12.44,11.38,23.6,23.08,28.6,9.31,4,19.77,4,29.89,4l52.37-.16c7.51,0,14.24.07,21.36-2.52a42.79,42.79,0,0,0,16-10.47,41,41,0,0,0,10.41-18.62c2.22-9.12,1.25-18.68.27-28l-5.21-49.83c-.71-6.74-1.64-14-6.24-19-5.9-6.38-15.66-6.83-24.35-6.83l-84.7-.05c-6.15,0-12.7.11-17.81,3.51S55.72,93.83,54.36,99.82Z"/><path class="cls-3" d="M97.94,128.09h18.41l7.1,27.56,7-27.56h18.39v45.29H137.43V138.84l-8.83,34.54H118.22l-8.81-34.54v34.54H97.94Z"/></svg>