<svg id="Livello_1" data-name="Livello 1" xmlns="http://www.w3.org/2000/svg" viewBox="0 0 470.42 385.18"><defs><style>.cls-1{fill:#ff2030;}.cls-2{fill:#f9e2b0;}.cls-3{fill:#003745;}.cls-4{fill:none;}.cls-5{font-size:11.25px;fill:#fff;font-family:Arial-Black, Arial Black;font-weight:800;letter-spacing:0.14em;}.cls-6{letter-spacing:0.08em;}</style></defs><rect class="cls-1" x="31.4" y="-53.6" width="414.49" height="497.62" transform="translate(433.85 -43.43) rotate(90)"/><path class="cls-2" d="M409.67,100.53a46.37,46.37,0,0,0-6.89-14.77,36.86,36.86,0,0,0-11.49-10.45,32.27,32.27,0,0,0-15.89-4.22q-9.57,0-15.79,4.31a33.36,33.36,0,0,0-10.05,11l-.13-15.34L346.57,69a68.79,68.79,0,0,1-15.73,5.75A80.51,80.51,0,0,1,311.26,77v3.46q2.49,0,4.8,3.16t2.3,8.73v93q0,5.57-2.4,8.73t-4.89,3.16v3.46h33.57c.09-.48.7-.82.8-1.3a22.08,22.08,0,0,1,2.42-7c1.45-3.07-2.45,2.07,0,0,1.2-1,0-4.64,1.57-5.21v-23.5a31.62,31.62,0,0,0,7.29,4.12,27.89,27.89,0,0,0,9.59,1.82h.77a41.31,41.31,0,0,0,19.76-4.51,42,42,0,0,0,14-11.89,52.2,52.2,0,0,0,8.34-16.69A65.42,65.42,0,0,0,412,117.7,64.46,64.46,0,0,0,409.67,100.53Zm-30,29.54a79.75,79.75,0,0,1-3.76,15.73,40.17,40.17,0,0,1-6,11.41q-3.48,4.42-8.11,4.42a7,7,0,0,1-5.4-2.69,21.61,21.61,0,0,1-3.86-7.19,54.31,54.31,0,0,1-2.32-10.27,91.55,91.55,0,0,1-.77-12.08A121.42,121.42,0,0,1,350.69,112a95.65,95.65,0,0,1,3.57-15.92A39.62,39.62,0,0,1,360,84.42q3.38-4.52,7.82-4.51h1a8.29,8.29,0,0,1,5.41,3.17,21.73,21.73,0,0,1,3.76,7.28,60.61,60.61,0,0,1,2.22,10.36,93.89,93.89,0,0,1,.77,12.18A120.06,120.06,0,0,1,379.63,130.07Z"/><path class="cls-3" d="M190.24,237.74a30,30,0,0,0-9.71-8,28.36,28.36,0,0,0-13.31-3h-1.17A25.13,25.13,0,0,0,154,229.84a30.77,30.77,0,0,0-9,7.83V194.28c0,1-2,1.22-2.78,1.34-1.87.28-3.77.51-5.66.72a93.67,93.67,0,0,1-13.4.61,52.73,52.73,0,0,1-7.94-.78c-1.28-.24-3.7-.71-3.7-2.17v7.32q2.17,0,4.27,2.37a9.56,9.56,0,0,1,2.09,6.54v86.93L116.67,299l2.51,1.58a26.79,26.79,0,0,1,6-3.24,16.77,16.77,0,0,1,5.53-.93,26.8,26.8,0,0,1,5.77.65l6.45,1.43c2.34.53,4.94,1,7.78,1.44a64.84,64.84,0,0,0,9.63.65,39.53,39.53,0,0,0,16.82-3.31,34.4,34.4,0,0,0,11.8-8.76,36.28,36.28,0,0,0,7-12.29,44.48,44.48,0,0,0,2.26-14,43.65,43.65,0,0,0-2-13.15A35,35,0,0,0,190.24,237.74ZM171,271.22a58.09,58.09,0,0,1-3.27,12.14,30.56,30.56,0,0,1-5.19,8.91,9.09,9.09,0,0,1-7,3.45,6.42,6.42,0,0,1-4.69-2,15,15,0,0,1-3.26-5.39,38.67,38.67,0,0,1-1.92-7.83A63.33,63.33,0,0,1,145,271c0-1.06,0-2.16.08-3.31s.14-2.3.25-3.45a88.53,88.53,0,0,1,1.76-11.56,50.14,50.14,0,0,1,3.26-10.06,24.74,24.74,0,0,1,4.69-7.11,8.24,8.24,0,0,1,6-2.73h.67a7.15,7.15,0,0,1,4.6,2.37,16.33,16.33,0,0,1,3.18,5.53,40.28,40.28,0,0,1,1.92,7.9,62.4,62.4,0,0,1,.67,9.34A83.09,83.09,0,0,1,171,271.22Z"/><path class="cls-4" d="M235.32,245.79a16.68,16.68,0,0,0-5.95,7.91,10.92,10.92,0,0,0,.16,7.81,8.69,8.69,0,0,0,5.66,5,13.46,13.46,0,0,0,7,.19A19.72,19.72,0,0,0,247,265a18.37,18.37,0,0,0,5-3.83l8.47-25.76q-6,1.56-12.87,4A48.6,48.6,0,0,0,235.32,245.79Z"/><path class="cls-3" d="M288.17,237.8a27.77,27.77,0,0,0,1.29-14.11,27,27,0,0,0-4.52-10.51,49.39,49.39,0,0,1-11.65,5.22h0a53,53,0,0,1-8.29,2.22,45.71,45.71,0,0,1-1.39,5.07l-.57,1.74a11.08,11.08,0,0,1-5.93,4.39,26.8,26.8,0,0,1-8.11,1c-3,0-6.1-.25-9.39-.63s-6.5-.6-9.64-.7a33.3,33.3,0,0,0-10.37,1.26,31.6,31.6,0,0,0-8.08,3.68,23.58,23.58,0,0,0-9.37,12.16,19.66,19.66,0,0,0-1,9,20.89,20.89,0,0,0,2.74,7.77,20.41,20.41,0,0,0,5.51,6,26.21,26.21,0,0,0,7.68,3.95,31.3,31.3,0,0,0,13.5,1.27,35.1,35.1,0,0,0,10.14-2.92,43.67,43.67,0,0,0,8.83-5.46l-1.25,3.81a11.09,11.09,0,0,0-.38,6.22,13.66,13.66,0,0,0,2.67,5.29,18.29,18.29,0,0,0,4.89,4.15,30.28,30.28,0,0,0,6.28,2.87,32.21,32.21,0,0,0,9.25,1.63,17.85,17.85,0,0,0,8-1.43c1.13-.57,2.3-1.22,3.53-1.92a36.89,36.89,0,0,0,3.49-2.29l-1.39-2.75a8,8,0,0,1-3.82,1.74,8.37,8.37,0,0,1-3.9-.22,4.63,4.63,0,0,1-2.47-1.88,4,4,0,0,1-.14-3.56ZM252,261.13a18.06,18.06,0,0,1-5,3.83,19.78,19.78,0,0,1-4.8,1.77,13.57,13.57,0,0,1-7-.19,8.69,8.69,0,0,1-5.66-5,11,11,0,0,1-.17-7.8,16.62,16.62,0,0,1,6-7.91,48.47,48.47,0,0,1,12.23-6.38q6.9-2.49,12.87-4Z"/><path class="cls-3" d="M275.18,202.59a8.5,8.5,0,0,1-5,4.57,8.38,8.38,0,0,1-6.5-1.17c-.42-.24-.85-.51-1.26-.8a5,5,0,0,0-.58-.27q-3.76-1.36-8.62,1.15a16.73,16.73,0,0,0-7.34,8.09c0,.09-.09.15-.13.24l-.34.94c-.14.37-.25.77-.37,1.18a22.54,22.54,0,0,0-.68,3.69,5.69,5.69,0,0,0,.91,4.34,11.52,11.52,0,0,1-6.1,1.61,20.3,20.3,0,0,1-7.2-1.27,21.75,21.75,0,0,1-5-2.62,15,15,0,0,1-3.84-3.9,11.66,11.66,0,0,1-1.88-5.13,13.37,13.37,0,0,1,.89-6.35,16.51,16.51,0,0,1,5.66-7.72c.16-.13.32-.27.48-.38a26.89,26.89,0,0,1,10-4.29,40.32,40.32,0,0,1,12.18-.65h.1c.58.06,1.14.14,1.71.21a50.06,50.06,0,0,1,11,2.64l1.26.45a64.93,64.93,0,0,1,10.18,5.09C274.81,202.37,275,202.47,275.18,202.59Z"/><path class="cls-3" d="M373.76,198.55a8.3,8.3,0,0,1-1.26-.09,9.85,9.85,0,0,0-1.25-.08,23.5,23.5,0,0,0-13.56,3.77,34.19,34.19,0,0,0-9.88,11.13,43.66,43.66,0,0,1,10,4.52,34.05,34.05,0,0,1,7.87,6.61,29.57,29.57,0,0,1,5.11,8.29,24.72,24.72,0,0,1,1.84,9.37,25.37,25.37,0,0,1-3,12.05,31.13,31.13,0,0,1-8.28,9.88,41.41,41.41,0,0,1-12.3,6.61A45.83,45.83,0,0,1,333.92,273a44.79,44.79,0,0,1-12.39-1.68,45.92,45.92,0,0,1-10.71-4.52,4.69,4.69,0,0,0-1,2.85q0,3.18,5,4.85a74.79,74.79,0,0,0,7.87,2.35q4.68,1.17,10,2.34c3.52.78,7.14,1.62,10.89,2.51s7.39,1.84,11,2.85q14.06,4,20.17,10.54t6.11,13.39v.84a21.64,21.64,0,0,1-6.11,13.81,46.65,46.65,0,0,1-14.06,10A81.63,81.63,0,0,1,342,339.24a100.15,100.15,0,0,1-20.08,2.09,84.24,84.24,0,0,1-13.31-1,44.4,44.4,0,0,1-11.13-3.18q-6.19-2.85-9-6.78a14,14,0,0,1-2.76-8.12,14.62,14.62,0,0,1,1.76-6.86,19.92,19.92,0,0,1,4.94-6,24.67,24.67,0,0,1,7.53-4.27,27.6,27.6,0,0,1,9.54-1.59,39.65,39.65,0,0,1,4.44.25,20.43,20.43,0,0,1,4.6,1.09,17.29,17.29,0,0,0-4.69,5.27,11.11,11.11,0,0,0-1.34,5.11,9.52,9.52,0,0,0,1.85,5.61,17,17,0,0,0,5.1,4.6,27.23,27.23,0,0,0,7.53,3.1,37.15,37.15,0,0,0,9.13,1.08c1.22,0,2.45-.05,3.68-.16s2.45-.28,3.68-.51q6.19-1.17,9.38-3.51c2.11-1.57,3.17-3.29,3.17-5.19q0-3.35-3.51-7.2t-12.05-6.69c-2.57-.78-5.33-1.57-8.29-2.35s-5.86-1.5-8.7-2.17-5.53-1.37-8-2.1a51.93,51.93,0,0,1-6.44-2.25,25.63,25.63,0,0,1-9.88-7.2,14.38,14.38,0,0,1-.92-18.08q2.76-4.18,9.13-7.87a32.68,32.68,0,0,1-8.79-9.87,24.47,24.47,0,0,1-3.27-12.39,24.91,24.91,0,0,1,3-12,31.35,31.35,0,0,1,8.28-9.79,41.35,41.35,0,0,1,12.31-6.61,45.73,45.73,0,0,1,15.06-2.43c.56,0,1.56.06,3,.17s2.85.28,4.19.5q.5-4.68,1.59-10A43.56,43.56,0,0,1,346,192.1a22.5,22.5,0,0,1,5.86-7.7,15.83,15.83,0,0,1,9.54-3.43h1q6,0,8.95,4a15.5,15.5,0,0,1,2.93,9.37A17.42,17.42,0,0,1,373.76,198.55Zm-32.47,67.12a9.4,9.4,0,0,0,5.27-5.19,22.36,22.36,0,0,0,1.92-9.71,43.14,43.14,0,0,0-2-12.72,50.18,50.18,0,0,0-3.51-8.2,31,31,0,0,0-4.44-6.28,23.46,23.46,0,0,0-4.93-4.1,9.75,9.75,0,0,0-5-1.5,9.45,9.45,0,0,0-2.17.33c-2.35.67-4.13,2.37-5.36,5.11a23.72,23.72,0,0,0-1.84,9.79,43.09,43.09,0,0,0,2,12.72,39.46,39.46,0,0,0,3.43,8,37.39,37.39,0,0,0,4.44,6.36A19.69,19.69,0,0,0,334,264.5a10.2,10.2,0,0,0,5.11,1.51,5.63,5.63,0,0,0,1-.09C340.45,265.87,340.84,265.78,341.29,265.67Z"/><path class="cls-2" d="M250.42,193.85h.1a126.75,126.75,0,0,1-11.27-17.26,185.65,185.65,0,0,1-10.63-22.78c-.15-.39-.28-.76-.43-1.15l-20.06,5.9-.14,0c4.35,12.07,9.13,24,15.93,34.92,1.2,1.92,2.49,3.8,3.83,5.64.16-.13.32-.27.48-.38a26.89,26.89,0,0,1,10-4.29A40.32,40.32,0,0,1,250.42,193.85Z"/><path class="cls-2" d="M298.05,167.5c-1.49-12.74-5.28-25.09-9.46-37.21l-.12.05-19.34,8c.13.4.27.77.39,1.18a186.5,186.5,0,0,1,6,24.41,125,125,0,0,1,2,20.93,48.55,48.55,0,0,1-2,15.11,20.18,20.18,0,0,1-.93,2.31c.19.12.38.22.56.34a8.5,8.5,0,0,1-5,4.57,8.38,8.38,0,0,1-6.5-1.17c-.42-.24-.85-.51-1.26-.8a5,5,0,0,0-.58-.27q-3.76-1.36-8.62,1.15a16.73,16.73,0,0,0-7.34,8.09c0,.09-.09.15-.13.24l-.34.94c-.14.37-.25.77-.37,1.18.62.43,1.21.89,1.85,1.3a19,19,0,0,0,3.77,1.89,27.1,27.1,0,0,0,14.38.9,53,53,0,0,0,8.29-2.22h0a49.39,49.39,0,0,0,11.65-5.22,25.82,25.82,0,0,0,8.7-8.56,19.73,19.73,0,0,0,1.76-3.84C298.86,190.09,299.36,178.6,298.05,167.5Z"/><path class="cls-3" d="M310.69,132.69a76.44,76.44,0,0,0-2.08-8.66l-12-41.38c-2.29-7.89-4.65-15.93-9.28-22.71-6.47-9.48-17.5-15.87-29-16.08-9.13-.17-17.87,3.34-26.32,6.8L188.31,68.53c-6.26,2.57-11.92,4.76-17,9.34A38.57,38.57,0,0,0,161.5,92a37,37,0,0,0-2.39,19.08c1.24,8.37,5.29,16,9.27,23.51l21.24,39.86c2.87,5.4,6.1,11.14,11.63,13.74,7.09,3.33,15.39.4,22.66-2.54L294.7,157c5.14-2.08,10.57-4.39,13.69-9S311.58,138.15,310.69,132.69Z"/><path class="cls-4" d="M246.12,98.91a48.9,48.9,0,0,0-11-10.54q-5.12-3.3-8.89-2c-2.12,1.08-3.74,3.33-4.88,6.75a48.55,48.55,0,0,0-2,15.1,125,125,0,0,0,2,20.94c.39,2.28.85,4.59,1.35,6.91l38-13.75q-1.51-3-3.09-5.87A126.14,126.14,0,0,0,246.12,98.91Z"/><path class="cls-2" d="M273,99.57c-5.94-9.48-13.52-18.13-22.92-24.29a19.89,19.89,0,0,0-3.77-1.9c-7.1-2.69-15.4-1.25-22.68,1.33h0c-7.87,2.48-16.18,6.67-20.35,13.78a18.51,18.51,0,0,0-1.75,3.83c-3.47,10.69-4,22.19-2.66,33.29a131.29,131.29,0,0,0,3.48,17.9l20.42-7.39c-.5-2.32-1-4.63-1.35-6.91a125,125,0,0,1-2-20.94,48.55,48.55,0,0,1,2-15.1c1.14-3.42,2.76-5.67,4.88-6.75q3.77-1.34,8.89,2a48.9,48.9,0,0,1,11,10.54,126.14,126.14,0,0,1,11.54,17.58q1.57,2.87,3.09,5.87L281.14,115A128.15,128.15,0,0,0,273,99.57Z"/><path class="cls-2" d="M167.85,88.54a43.76,43.76,0,0,0-13.7-12.47,38.45,38.45,0,0,0-19-5q-11.41,0-18.84,5.15a39.77,39.77,0,0,0-12,13.16L104.22,71l-3.41-2.52A82.15,82.15,0,0,1,82,75.38a96.36,96.36,0,0,1-23.36,2.74v4.12c2,0,3.89,1.26,5.72,3.78s2.75,6,2.75,10.41v133q0,6.63-2.86,10.41c-1.91,2.51-3.85,3.77-5.84,3.77v4.12h54.24v-4.12c-1.84,0-3.7-1.11-5.61-3.31s-2.86-5.54-2.86-10V181.55a36.7,36.7,0,0,0,8.69,4.92,33.25,33.25,0,0,0,11.45,2.17h.91q13.5,0,23.57-5.37a50.19,50.19,0,0,0,16.7-14.19,62.57,62.57,0,0,0,10-19.91,78.31,78.31,0,0,0,3.32-22.54,76.75,76.75,0,0,0-2.75-20.48A54.9,54.9,0,0,0,167.85,88.54Zm-27.6,52.85a96,96,0,0,1-4.49,18.77,48.1,48.1,0,0,1-7.13,13.61Q124.48,179,119,179a8.28,8.28,0,0,1-6.44-3.2,25.65,25.65,0,0,1-4.61-8.58A63.8,63.8,0,0,1,105.14,155a107.46,107.46,0,0,1-.92-14.42,146.67,146.67,0,0,1,1.49-20.71,115.16,115.16,0,0,1,4.27-19,47.67,47.67,0,0,1,6.78-14q4-5.37,9.33-5.37h1.15a9.84,9.84,0,0,1,6.45,3.77,25.75,25.75,0,0,1,4.49,8.7,70.65,70.65,0,0,1,2.64,12.35,110.09,110.09,0,0,1,.93,14.53A143.41,143.41,0,0,1,140.25,141.39Z"/><text class="cls-5" transform="translate(133.18 323.13)">FILL <tspan class="cls-6" x="38.41" y="0">Y</tspan><tspan x="48.04" y="0">OUR STYLE</tspan></text></svg>