<svg id="Livello_1" data-name="Livello 1" xmlns="http://www.w3.org/2000/svg" viewBox="0 0 470.42 250.86"><defs><style>.cls-1{fill:#ff2030;}.cls-2{fill:none;}.cls-3{fill:#f9e2b0;}.cls-4{fill:#003745;}</style></defs><rect class="cls-1" x="108.3" y="-111.26" width="250.86" height="473.39" transform="translate(359.16 -108.3) rotate(90)"/><path class="cls-2" d="M169.76,145a34,34,0,0,0,7.75,7.43c2.41,1.56,4.5,2,6.27,1.38,1.49-.76,2.64-2.34,3.44-4.76a34.23,34.23,0,0,0,1.39-10.64,88.41,88.41,0,0,0-1.42-14.77c-.28-1.61-.6-3.23-.95-4.87l-26.81,9.69c.72,1.41,1.44,2.8,2.19,4.14A87.15,87.15,0,0,0,169.76,145Z"/><path class="cls-3" d="M150.81,144.55A55.31,55.31,0,0,0,167,161.67a13.2,13.2,0,0,0,2.65,1.34c5,1.91,10.86.89,16-.94v0c5.55-1.75,11.41-4.71,14.35-9.72a13.06,13.06,0,0,0,1.23-2.71,55.27,55.27,0,0,0,1.88-23.47,91.64,91.64,0,0,0-2.46-12.62l-14.39,5.21c.35,1.64.67,3.26.95,4.87a88.41,88.41,0,0,1,1.42,14.77,34.23,34.23,0,0,1-1.39,10.64c-.8,2.42-1.95,4-3.44,4.76-1.77.63-3.86.18-6.27-1.38a34,34,0,0,1-7.75-7.43,87.15,87.15,0,0,1-8.14-12.4c-.75-1.34-1.47-2.73-2.19-4.14l-14.37,5.21A91,91,0,0,0,150.81,144.55Z"/><path class="cls-4" d="M212,101.64a52.67,52.67,0,0,0-1.47-6.1l-8.47-29.18c-1.61-5.57-3.27-11.24-6.54-16A25.89,25.89,0,0,0,175.08,39c-6.43-.12-12.6,2.36-18.56,4.8L125.7,56.4c-4.42,1.81-8.41,3.35-12,6.59a27.14,27.14,0,0,0-6.93,10,26.1,26.1,0,0,0-1.68,13.45c.87,5.91,3.72,11.31,6.53,16.58l15,28.12c2,3.8,4.3,7.85,8.2,9.68,5,2.35,10.86.28,16-1.79l49.92-20.21c3.63-1.46,7.46-3.09,9.66-6.32S212.63,105.5,212,101.64Z"/><path class="cls-2" d="M166.46,77.82a34.46,34.46,0,0,0-7.75-7.43q-3.61-2.33-6.27-1.38-2.24,1.14-3.44,4.76a34.26,34.26,0,0,0-1.39,10.65A88.2,88.2,0,0,0,149,99.18c.28,1.61.6,3.24.95,4.88l26.8-9.7c-.71-1.41-1.43-2.79-2.18-4.14A87.72,87.72,0,0,0,166.46,77.82Z"/><path class="cls-3" d="M185.41,78.29a55.24,55.24,0,0,0-16.17-17.13,13.74,13.74,0,0,0-2.65-1.34c-5-1.9-10.86-.88-16,.94h0c-5.55,1.75-11.41,4.71-14.35,9.71A13.55,13.55,0,0,0,135,73.17a55.31,55.31,0,0,0-1.88,23.48,92.23,92.23,0,0,0,2.46,12.62L150,104.06c-.35-1.64-.67-3.27-.95-4.88a88.2,88.2,0,0,1-1.42-14.76A34.26,34.26,0,0,1,149,73.77q1.2-3.61,3.44-4.76,2.66-.95,6.27,1.38a34.46,34.46,0,0,1,7.75,7.43,87.72,87.72,0,0,1,8.14,12.4c.75,1.35,1.47,2.73,2.18,4.14l14.38-5.2A91,91,0,0,0,185.41,78.29Z"/><path class="cls-3" d="M111.27,70.51a30.84,30.84,0,0,0-9.66-8.8,27.18,27.18,0,0,0-13.37-3.55q-8,0-13.28,3.63a28,28,0,0,0-8.45,9.28L66.4,58.16,64,56.39a58.32,58.32,0,0,1-13.23,4.84,68.09,68.09,0,0,1-16.48,1.93v2.91q2.1,0,4,2.66a12.28,12.28,0,0,1,1.94,7.34v93.76a11.92,11.92,0,0,1-2,7.34c-1.35,1.78-2.72,2.66-4.12,2.66v2.91H72.37v-2.91q-1.94,0-4-2.34t-2-7V136.1a26,26,0,0,0,6.13,3.47,23.37,23.37,0,0,0,8.07,1.53h.64a34.73,34.73,0,0,0,16.62-3.79,35.28,35.28,0,0,0,11.78-10,44.07,44.07,0,0,0,7-14A55.25,55.25,0,0,0,119,97.37a54.12,54.12,0,0,0-1.93-14.44A38.81,38.81,0,0,0,111.27,70.51ZM91.8,107.78A67.21,67.21,0,0,1,88.64,121a34.38,34.38,0,0,1-5,9.61c-2,2.47-4.23,3.71-6.82,3.71a5.85,5.85,0,0,1-4.55-2.26A18.31,18.31,0,0,1,69,126,46.37,46.37,0,0,1,67,117.38a76.83,76.83,0,0,1-.64-10.16,103.19,103.19,0,0,1,1-14.61,81.14,81.14,0,0,1,3-13.39,33.67,33.67,0,0,1,4.78-9.84q2.85-3.8,6.58-3.8h.81a7,7,0,0,1,4.55,2.67,18.1,18.1,0,0,1,3.16,6.13,49.06,49.06,0,0,1,1.87,8.71,79,79,0,0,1,.65,10.25A100.46,100.46,0,0,1,91.8,107.78Z"/><path class="cls-4" d="M431.34,111.18a6.23,6.23,0,0,1-.89-.06,6.09,6.09,0,0,0-.88-.06,16.55,16.55,0,0,0-9.56,2.65,24.15,24.15,0,0,0-7,7.85,30.9,30.9,0,0,1,7,3.19,23.91,23.91,0,0,1,5.54,4.66,20.63,20.63,0,0,1,3.6,5.85,17.27,17.27,0,0,1,1.3,6.61,18,18,0,0,1-2.12,8.5,22.07,22.07,0,0,1-5.85,7,28.92,28.92,0,0,1-8.67,4.66,32.15,32.15,0,0,1-10.63,1.71,31.52,31.52,0,0,1-8.73-1.18,32.22,32.22,0,0,1-7.56-3.18,3.29,3.29,0,0,0-.7,2q0,2.25,3.54,3.43a54.07,54.07,0,0,0,5.55,1.65q3.3.83,7,1.65c2.48.55,5,1.14,7.67,1.77s5.21,1.3,7.73,2q9.92,2.84,14.23,7.44t4.31,9.44v.59a15.31,15.31,0,0,1-4.31,9.74,33,33,0,0,1-9.92,7,57.08,57.08,0,0,1-13.16,4.31,70.69,70.69,0,0,1-14.16,1.48,59.67,59.67,0,0,1-9.39-.71,31.24,31.24,0,0,1-7.85-2.24,15.23,15.23,0,0,1-6.31-4.79,9.82,9.82,0,0,1-1.95-5.72,10.25,10.25,0,0,1,1.24-4.84,14.07,14.07,0,0,1,3.48-4.25,17.61,17.61,0,0,1,5.31-3,19.44,19.44,0,0,1,6.73-1.12,27.9,27.9,0,0,1,3.13.18,14.05,14.05,0,0,1,3.24.76,12.19,12.19,0,0,0-3.3,3.72,7.8,7.8,0,0,0-.94,3.6,6.74,6.74,0,0,0,1.29,4,12.13,12.13,0,0,0,3.6,3.24,19.22,19.22,0,0,0,5.32,2.19,26,26,0,0,0,6.43.76c.86,0,1.73,0,2.6-.11s1.73-.2,2.59-.36a16.35,16.35,0,0,0,6.61-2.48,4.61,4.61,0,0,0,2.25-3.66q0-2.36-2.48-5.07t-8.5-4.72q-2.72-.84-5.84-1.66T395.87,184q-3-.7-5.67-1.48a36.63,36.63,0,0,1-4.54-1.59,17.9,17.9,0,0,1-7-5.08,10.13,10.13,0,0,1-.65-12.75,18.8,18.8,0,0,1,6.44-5.54,23,23,0,0,1-6.2-7,17.16,17.16,0,0,1-2.3-8.73,17.51,17.51,0,0,1,2.12-8.44,22.33,22.33,0,0,1,5.84-6.91,29.33,29.33,0,0,1,8.68-4.66,32.39,32.39,0,0,1,10.62-1.71c.4,0,1.11,0,2.13.11s2,.2,2.95.36c.24-2.2.61-4.55,1.12-7a31,31,0,0,1,2.3-7,15.9,15.9,0,0,1,4.14-5.43,11.14,11.14,0,0,1,6.72-2.42h.71a7.33,7.33,0,0,1,6.32,2.83,11,11,0,0,1,2.06,6.61A12.5,12.5,0,0,1,431.34,111.18Zm-22.9,47.33a6.64,6.64,0,0,0,3.72-3.66,15.8,15.8,0,0,0,1.35-6.84,30.57,30.57,0,0,0-1.41-9,36.14,36.14,0,0,0-2.48-5.78,21.86,21.86,0,0,0-3.13-4.43,16.36,16.36,0,0,0-3.48-2.89,6.81,6.81,0,0,0-3.54-1.06,6.53,6.53,0,0,0-1.54.24,6,6,0,0,0-3.78,3.6,16.83,16.83,0,0,0-1.29,6.9,30.56,30.56,0,0,0,1.41,9,28.38,28.38,0,0,0,2.42,5.67,27.28,27.28,0,0,0,3.13,4.48,13.81,13.81,0,0,0,3.48,3,7.14,7.14,0,0,0,3.6,1.07,4.17,4.17,0,0,0,.71-.06C407.85,158.65,408.12,158.59,408.44,158.51Z"/><path class="cls-4" d="M369.41,173.2a27,27,0,0,1-2.48,1.6c-.87.5-1.71.95-2.51,1.35a12.65,12.65,0,0,1-5.64,1,22.68,22.68,0,0,1-6.54-1.19,22.37,22.37,0,0,1-4.44-2,13,13,0,0,1-3.44-3,9.53,9.53,0,0,1-1.87-3.75,7.82,7.82,0,0,1,.28-4.4l.9-2.7a29.76,29.76,0,0,1-6.28,3.84,25,25,0,0,1-7.17,2,22.22,22.22,0,0,1-9.56-.95,18.92,18.92,0,0,1-5.43-2.82,14.6,14.6,0,0,1-5.78-9.8,14,14,0,0,1,.7-6.39,16.84,16.84,0,0,1,2.51-4.72,16.18,16.18,0,0,1,4.17-3.85,21.5,21.5,0,0,1,5.73-2.58,23.27,23.27,0,0,1,7.35-.86c2.22.08,4.49.25,6.82.53a66.07,66.07,0,0,0,6.65.48,18.75,18.75,0,0,0,5.73-.71,7.83,7.83,0,0,0,4.22-3.09l.41-1.23q2.14-6.41,1.16-9.8T351.43,116c-1.79-.6-3.82-.28-6.07,1a11.9,11.9,0,0,0-5.14,6l-.22.67a14.56,14.56,0,0,0-.66,3.47,4,4,0,0,0,.73,3.05,8.16,8.16,0,0,1-4.3,1.25,14.31,14.31,0,0,1-5.11-.77,15.18,15.18,0,0,1-3.59-1.77,10.35,10.35,0,0,1-2.79-2.68,8.2,8.2,0,0,1-1.42-3.59,9.49,9.49,0,0,1,.5-4.52,11.86,11.86,0,0,1,4.21-5.84,19,19,0,0,1,7-3.22,28.72,28.72,0,0,1,8.6-.68,35.47,35.47,0,0,1,9.08,1.79l.9.3a45.2,45.2,0,0,1,8.65,4.2,24.51,24.51,0,0,1,6.73,6.06,19.26,19.26,0,0,1,3.51,8,19.6,19.6,0,0,1-1,10l-9.95,29.78a2.87,2.87,0,0,0,.09,2.53,3.19,3.19,0,0,0,1.74,1.33,5.69,5.69,0,0,0,2.75.17,5.6,5.6,0,0,0,2.72-1.21Zm-31-14.23a14.49,14.49,0,0,0,3.41-1.24,13,13,0,0,0,3.52-2.69l6.09-18.21q-4.23,1.08-9.12,2.82a34.31,34.31,0,0,0-8.68,4.47,11.79,11.79,0,0,0-4.24,5.58,7.68,7.68,0,0,0,.09,5.53,6.15,6.15,0,0,0,4,3.58A9.59,9.59,0,0,0,338.43,159Z"/><path class="cls-4" d="M306.11,146.82a24.93,24.93,0,0,0-4.19-8,21.11,21.11,0,0,0-6.85-5.63,19.93,19.93,0,0,0-9.38-2.13h-.83a17.77,17.77,0,0,0-8.5,2.18,21.88,21.88,0,0,0-6.37,5.52V126.4a30.77,30.77,0,0,1-4.27,2.74,29.12,29.12,0,0,1-13.92,3.18h-.54c-.14,0-.26,0-.4,0v48.43L250,182l1.77,1.12a18.51,18.51,0,0,1,4.25-2.28,11.65,11.65,0,0,1,3.89-.66,18.41,18.41,0,0,1,4.07.46l4.55,1q2.48.56,5.49,1a44.85,44.85,0,0,0,6.79.46,28,28,0,0,0,11.86-2.33,24.42,24.42,0,0,0,8.32-6.18,25.53,25.53,0,0,0,4.9-8.67,31.3,31.3,0,0,0,1.59-9.88A30.92,30.92,0,0,0,306.11,146.82Zm-17.77,15.61A41,41,0,0,1,286,171a21.44,21.44,0,0,1-3.66,6.28,6.42,6.42,0,0,1-5,2.43,4.49,4.49,0,0,1-3.3-1.42,10.29,10.29,0,0,1-2.3-3.8,27.17,27.17,0,0,1-1.36-5.52,44.27,44.27,0,0,1-.47-6.69c0-.74,0-1.52.06-2.33s.09-1.62.17-2.43a63,63,0,0,1,1.24-8.16,35.77,35.77,0,0,1,2.3-7.09,17.72,17.72,0,0,1,3.31-5,5.82,5.82,0,0,1,4.25-1.92h.47A5.08,5.08,0,0,1,285,137a11.54,11.54,0,0,1,2.24,3.9,29.23,29.23,0,0,1,1.36,5.58,44.89,44.89,0,0,1,.47,6.58A58.56,58.56,0,0,1,288.34,162.43Z"/><path class="cls-3" d="M281.8,73A32.63,32.63,0,0,0,277,62.57a26.07,26.07,0,0,0-8.09-7.37,22.8,22.8,0,0,0-11.2-3,19,19,0,0,0-11.12,3A23.36,23.36,0,0,0,239.46,63l-.09-10.81-2-1.49a48.14,48.14,0,0,1-11.08,4.06,57,57,0,0,1-13.8,1.62v2.43c1.17,0,2.3.75,3.38,2.23a10.3,10.3,0,0,1,1.62,6.15V153a9.92,9.92,0,0,1-1.69,6.15c-1.12,1.49-2.27,2.23-3.44,2.23v2.44h32v-2.44a4.61,4.61,0,0,1-3.31-2q-1.68-2-1.68-5.87V117.5a21.45,21.45,0,0,0,5.13,2.91,19.4,19.4,0,0,0,6.36,1.26l.4,0h.54a29.12,29.12,0,0,0,13.92-3.17,31.72,31.72,0,0,0,4.27-2.74,29.28,29.28,0,0,0,5.59-5.64,37.1,37.1,0,0,0,5.88-11.76,46.08,46.08,0,0,0,2-13.31A45.38,45.38,0,0,0,281.8,73Zm-22.34,32a29.92,29.92,0,0,1-4.42,8.43,8.19,8.19,0,0,1-4.18,3,6.76,6.76,0,0,1-1.81.25,5.14,5.14,0,0,1-4-2,16,16,0,0,1-2.85-5.31,39.86,39.86,0,0,1-1.71-7.58,67.11,67.11,0,0,1-.57-8.92A89.59,89.59,0,0,1,240.86,80a70.88,70.88,0,0,1,2.63-11.76,29.73,29.73,0,0,1,4.21-8.64q2.49-3.33,5.77-3.33h.71a6.11,6.11,0,0,1,4,2.33A16,16,0,0,1,261,64a43.3,43.3,0,0,1,1.64,7.65,68.74,68.74,0,0,1,.57,9,90,90,0,0,1-.92,12.68c-.3,2.09-.68,4.06-1.12,6A54,54,0,0,1,259.46,104.93Z"/></svg>