<svg id="Livello_1" data-name="Livello 1" xmlns="http://www.w3.org/2000/svg" viewBox="0 0 249.45 249.45"><defs><style>.cls-1{fill:#f9e4b7;}.cls-2{fill:#ff2030;}.cls-3{fill:#003745;}</style></defs><rect class="cls-1" width="249.45" height="249.45" transform="translate(249.45 0) rotate(90)"/><path class="cls-2" d="M83.75,159.4A62.2,62.2,0,0,0,86.56,166l15.1,31.41c2.88,6,5.83,12.08,10.44,16.87a29.69,29.69,0,0,0,25.25,9c7.31-1.08,13.81-5.05,20.09-8.94l32.48-20.08c4.65-2.89,8.87-5.39,12.3-9.72a30.94,30.94,0,0,0,5.94-12.61,29.91,29.91,0,0,0-.63-15.54c-2.11-6.51-6.36-12.08-10.53-17.51l-22.26-29c-3-3.91-6.35-8.06-11.11-9.4-6.1-1.71-12.34,1.74-17.74,5l-52.64,32.3c-3.82,2.34-7.84,4.91-9.72,9S82.3,155.17,83.75,159.4Z"/><path class="cls-3" d="M118.24,180.79c6,6.76,13.21,12.65,21.53,16.31a15.36,15.36,0,0,0,3.26,1c6,1.21,12.44-1.05,17.9-4.08h0c5.94-3,12-7.49,14.4-13.71a15.63,15.63,0,0,0,.88-3.29c1.34-9,.2-18.22-2.32-26.91a106,106,0,0,0-5.17-13.8l-15.3,8.61c.71,1.79,1.39,3.57,2,5.33a101.11,101.11,0,0,1,4.41,16.43,39.57,39.57,0,0,1,.44,12.31q-.67,4.32-3,6-2.83,1.58-7.36-.37a39.58,39.58,0,0,1-10.17-6.94,100.94,100.94,0,0,1-11.55-12.49c-1.1-1.37-2.18-2.8-3.25-4.26l-15.28,8.6A104.7,104.7,0,0,0,118.24,180.79Z"/><path class="cls-3" d="M104,97.31a11.4,11.4,0,0,0-1,2.89c0-.07,0-.13.07-.2C103.38,99.13,103.67,98.22,104,97.31Z"/><path class="cls-2" d="M105.16,121.86A45.57,45.57,0,0,1,94.59,123h-.74a30.75,30.75,0,0,1-6.49-.88,76.74,76.74,0,0,0,1.82,7.8,106,106,0,0,0,5.17,13.8l15.3-8.61c-.71-1.79-1.39-3.57-2-5.33C106.67,127,105.86,124.39,105.16,121.86Z"/><path class="cls-2" d="M144.84,99.3a72.5,72.5,0,0,0-9.43-8.94A56.12,56.12,0,0,0,123.31,83a15.36,15.36,0,0,0-3.26-1c-4.37-.88-9,.08-13.22,1.83a43.84,43.84,0,0,0-4.68,2.25h0c-5.94,3-12,7.48-14.4,13.71a15.63,15.63,0,0,0-.88,3.29,54.36,54.36,0,0,0-.43,11.4,6.11,6.11,0,0,0,3,.82q4.47,0,7.82-4.26A38.75,38.75,0,0,0,103,100.2a11.4,11.4,0,0,1,1-2.89,6.42,6.42,0,0,1,1.84-2.26q2.83-1.58,7.36.37a39.58,39.58,0,0,1,10.17,6.94c1.41,1.25,2.85,2.67,4.3,4.18,2.36,2.45,4.77,5.19,7.25,8.31,1.1,1.37,2.18,2.8,3.25,4.26l15.28-8.6A104.7,104.7,0,0,0,144.84,99.3Z"/><path class="cls-3" d="M120.05,82a15.36,15.36,0,0,1,3.26,1,56.12,56.12,0,0,1,12.1,7.37,63.68,63.68,0,0,0,2.48-17.47,62,62,0,0,0-2.22-16.56A44.34,44.34,0,0,0,129,42.09,35.42,35.42,0,0,0,118,32a31.19,31.19,0,0,0-15.33-4.07q-9.24,0-15.24,4.16a32.24,32.24,0,0,0-9.69,10.64l-.12-14.8-2.76-2a66.62,66.62,0,0,1-15.18,5.55,78,78,0,0,1-18.89,2.23V37c1.6,0,3.15,1,4.63,3s2.22,4.84,2.22,8.42V156q0,5.37-2.32,8.42c-1.54,2-3.11,3-4.71,3v3.33H84.41v-3.33q-2.22,0-4.53-2.68c-1.55-1.79-2.31-4.47-2.31-8.05V117.31a29.75,29.75,0,0,0,7,4,21.75,21.75,0,0,0,2.76.88,30.75,30.75,0,0,0,6.49.88h.74a45.57,45.57,0,0,0,10.57-1.18,34.91,34.91,0,0,0,8.49-3.17,40.52,40.52,0,0,0,13.51-11.47c.16-.22.3-.45.46-.68-1.45-1.51-2.89-2.93-4.3-4.18a39.58,39.58,0,0,0-10.17-6.94q-4.53-2-7.36-.37A6.42,6.42,0,0,0,104,97.31c-.28.91-.57,1.82-.88,2.69,0,.07,0,.13-.07.2A38.75,38.75,0,0,1,97.3,111q-3.35,4.26-7.82,4.26a6.11,6.11,0,0,1-3-.82,7.69,7.69,0,0,1-2.16-1.77,20.7,20.7,0,0,1-3.73-6.94,52.5,52.5,0,0,1-2.23-9.9,87.15,87.15,0,0,1-.74-11.66,118.44,118.44,0,0,1,1.2-16.74,93.62,93.62,0,0,1,3.45-15.36,38.44,38.44,0,0,1,5.49-11.29q3.26-4.35,7.54-4.35h.93a8,8,0,0,1,5.22,3.05,21.05,21.05,0,0,1,3.63,7,57.87,57.87,0,0,1,2.14,10,90.93,90.93,0,0,1,.74,11.75,116.13,116.13,0,0,1-1.08,15.54C111.1,82.06,115.68,81.1,120.05,82Z"/></svg>