<svg id="Livello_1" data-name="Livello 1" xmlns="http://www.w3.org/2000/svg" viewBox="0 0 470.42 385.18"><defs><style>.cls-1{fill:#f9e4b7;}.cls-2{fill:#003745;}.cls-3{fill:#ff2030;}</style></defs><rect class="cls-1" x="31.4" y="-53.6" width="414.49" height="497.62" transform="translate(433.85 -43.43) rotate(90)"/><path class="cls-2" d="M421,94.55a49.18,49.18,0,0,0-7.33-15.73,39.33,39.33,0,0,0-12.24-11.14,34.43,34.43,0,0,0-16.92-4.49q-10.18,0-16.81,4.6A35.5,35.5,0,0,0,357,79.53l-.13-16.34-3.05-2.25a73.41,73.41,0,0,1-16.75,6.13,85.85,85.85,0,0,1-20.86,2.45V73.2c1.77,0,3.48,1.12,5.11,3.37s2.45,5.35,2.45,9.3v99.06q0,5.92-2.55,9.3T316,197.6v3.68h35.75c.1-.51.74-.87.85-1.38a23.4,23.4,0,0,1,2.59-7.46c1.54-3.27-2.62,2.2,0,0,1.27-1.07,0-4.94,1.67-5.54v-25a32.84,32.84,0,0,0,7.76,4.39,29.73,29.73,0,0,0,10.21,1.94h.82q12,0,21-4.8a44.89,44.89,0,0,0,14.91-12.66A55.7,55.7,0,0,0,420.49,133a70,70,0,0,0,3-20.12A68.18,68.18,0,0,0,421,94.55ZM389,126a85.92,85.92,0,0,1-4,16.75,43.33,43.33,0,0,1-6.38,12.16q-3.69,4.7-8.63,4.69a7.42,7.42,0,0,1-5.76-2.86,23.17,23.17,0,0,1-4.11-7.66,56.4,56.4,0,0,1-2.46-10.93,96.37,96.37,0,0,1-.82-12.87,129.69,129.69,0,0,1,1.33-18.48,103.82,103.82,0,0,1,3.8-17,42.43,42.43,0,0,1,6.07-12.46q3.58-4.8,8.32-4.8h1A8.76,8.76,0,0,1,383.16,76a22.9,22.9,0,0,1,4,7.76,62.5,62.5,0,0,1,2.36,11,98.86,98.86,0,0,1,.83,13A128.56,128.56,0,0,1,389,126Z"/><path class="cls-3" d="M187.31,240.68a32,32,0,0,0-10.34-8.5A30.17,30.17,0,0,0,162.8,229h-1.25a26.68,26.68,0,0,0-12.83,3.29,32.67,32.67,0,0,0-9.63,8.34V194.39c0,1-2.08,1.3-3,1.43-2,.3-4,.54-6,.76a101.62,101.62,0,0,1-14.28.66,58.29,58.29,0,0,1-8.45-.84c-1.36-.25-3.94-.76-3.94-2.3v7.79c1.54,0,3.06.84,4.54,2.52a10.14,10.14,0,0,1,2.23,7V304l-1.25,2,2.68,1.69a28.1,28.1,0,0,1,6.42-3.45,17.75,17.75,0,0,1,5.88-1,28.42,28.42,0,0,1,6.15.69l6.86,1.53q3.75.84,8.29,1.53a68.78,68.78,0,0,0,10.25.69,42.34,42.34,0,0,0,17.92-3.52A36.67,36.67,0,0,0,186,294.77a38.38,38.38,0,0,0,7.39-13.08,47,47,0,0,0,2.41-14.92,46.29,46.29,0,0,0-2.14-14A37.3,37.3,0,0,0,187.31,240.68Zm-20.5,35.65a61,61,0,0,1-3.48,12.93,32.56,32.56,0,0,1-5.52,9.49,9.69,9.69,0,0,1-7.49,3.67,6.83,6.83,0,0,1-5-2.14,15.83,15.83,0,0,1-3.48-5.74,42,42,0,0,1-2-8.34,68.61,68.61,0,0,1-.71-10.1c0-1.12,0-2.29.09-3.52s.15-2.45.27-3.67a93.13,93.13,0,0,1,1.87-12.32,53,53,0,0,1,3.48-10.71,26.19,26.19,0,0,1,5-7.58,8.81,8.81,0,0,1,6.41-2.9h.72a7.63,7.63,0,0,1,4.9,2.52,17.3,17.3,0,0,1,3.39,5.89,44.19,44.19,0,0,1,2,8.42,67.63,67.63,0,0,1,.71,10A88.16,88.16,0,0,1,166.81,276.33Z"/><path class="cls-3" d="M291.62,240.74q2.72-8.3,1.36-15a28.77,28.77,0,0,0-4.8-11.19,52.68,52.68,0,0,1-12.42,5.56v0a55.92,55.92,0,0,1-8.82,2.37,50.74,50.74,0,0,1-1.48,5.4l-.61,1.85a11.78,11.78,0,0,1-6.32,4.68,28.22,28.22,0,0,1-8.63,1.1,99,99,0,0,1-10-.66c-3.5-.4-6.93-.65-10.27-.75a35.28,35.28,0,0,0-11,1.34,33.77,33.77,0,0,0-8.61,3.92,24.34,24.34,0,0,0-6.23,5.84,24.6,24.6,0,0,0-3.75,7.11,20.85,20.85,0,0,0-1,9.61,22.29,22.29,0,0,0,2.92,8.28,21.87,21.87,0,0,0,5.86,6.43,28,28,0,0,0,8.18,4.21,33.6,33.6,0,0,0,14.38,1.35,37.2,37.2,0,0,0,10.8-3.12,46.29,46.29,0,0,0,9.41-5.81l-1.34,4.06a11.77,11.77,0,0,0-.4,6.62,14.43,14.43,0,0,0,2.84,5.63,19.38,19.38,0,0,0,5.21,4.43,32.73,32.73,0,0,0,6.69,3.06,34.65,34.65,0,0,0,9.85,1.73,18.71,18.71,0,0,0,8.47-1.53c1.21-.6,2.46-1.29,3.77-2a40.49,40.49,0,0,0,3.72-2.44l-1.49-2.93a8.42,8.42,0,0,1-4.07,1.85,8.77,8.77,0,0,1-4.15-.23,5,5,0,0,1-2.63-2,4.28,4.28,0,0,1-.15-3.8ZM253,265.58a19.47,19.47,0,0,1-5.29,4.09,21.42,21.42,0,0,1-5.12,1.88,14.41,14.41,0,0,1-7.44-.21,9.25,9.25,0,0,1-6-5.35,11.74,11.74,0,0,1-.18-8.31,17.82,17.82,0,0,1,6.34-8.42,51.83,51.83,0,0,1,13-6.8q7.35-2.64,13.71-4.31Z"/><path class="cls-3" d="M277.78,203.24c-1.4,2.62-3.19,4.25-5.37,4.87a9,9,0,0,1-6.93-1.25c-.44-.25-.89-.55-1.33-.85a4.77,4.77,0,0,0-.62-.28q-4-1.46-9.18,1.22a17.84,17.84,0,0,0-7.82,8.61l-.13.25-.37,1c-.15.4-.27.83-.4,1.27a25.14,25.14,0,0,0-.72,3.93,6,6,0,0,0,1,4.61,12.15,12.15,0,0,1-6.5,1.72,21.58,21.58,0,0,1-7.66-1.35,23,23,0,0,1-5.34-2.79,16,16,0,0,1-4.09-4.15,12.55,12.55,0,0,1-2-5.47,14.53,14.53,0,0,1,.94-6.77,18.21,18.21,0,0,1,1.86-3.75,17.52,17.52,0,0,1,4.17-4.47c.18-.13.34-.28.52-.39a28.56,28.56,0,0,1,10.66-4.58,43.53,43.53,0,0,1,13-.69.18.18,0,0,1,.1,0c.62.06,1.22.14,1.83.22A52.68,52.68,0,0,1,265,197l1.34.48a69.38,69.38,0,0,1,10.84,5.41C277.38,203,277.59,203.11,277.78,203.24Z"/><path class="cls-3" d="M382.76,198.94a9.27,9.27,0,0,1-1.33-.09,9.52,9.52,0,0,0-1.34-.09q-8.56,0-14.44,4a36.36,36.36,0,0,0-10.52,11.85,46.61,46.61,0,0,1,10.61,4.82,36,36,0,0,1,8.38,7,31.73,31.73,0,0,1,5.43,8.82,26.19,26.19,0,0,1,2,10,27.14,27.14,0,0,1-3.2,12.83,33.09,33.09,0,0,1-8.83,10.52,43.84,43.84,0,0,1-13.1,7,48.92,48.92,0,0,1-16.05,2.58,47.76,47.76,0,0,1-13.19-1.78,49.29,49.29,0,0,1-11.41-4.81,5,5,0,0,0-1.06,3q0,3.39,5.34,5.17a83,83,0,0,0,8.38,2.49q5,1.26,10.61,2.5t11.59,2.68q6,1.43,11.67,3,15,4.28,21.48,11.23t6.51,14.26V317a23,23,0,0,1-6.51,14.7,49.47,49.47,0,0,1-15,10.61,87,87,0,0,1-19.88,6.51A106.78,106.78,0,0,1,327.5,351a90,90,0,0,1-14.17-1.07,47.68,47.68,0,0,1-11.86-3.39q-6.59-3-9.53-7.22a14.89,14.89,0,0,1-2.95-8.64,15.51,15.51,0,0,1,1.88-7.31,21.31,21.31,0,0,1,5.25-6.42,26.5,26.5,0,0,1,8-4.55,29.35,29.35,0,0,1,10.16-1.69A42.29,42.29,0,0,1,319,311a21.84,21.84,0,0,1,4.9,1.15,18.44,18.44,0,0,0-5,5.62,11.78,11.78,0,0,0-1.42,5.44,10.08,10.08,0,0,0,2,6,18.18,18.18,0,0,0,5.43,4.9,29,29,0,0,0,8,3.3,39.27,39.27,0,0,0,9.71,1.16c1.31,0,2.62-.06,3.92-.18s2.62-.3,3.93-.53q6.58-1.26,10-3.75c2.26-1.66,3.39-3.51,3.39-5.52q0-3.57-3.75-7.67t-12.83-7.13c-2.74-.83-5.68-1.67-8.83-2.5s-6.24-1.6-9.27-2.31-5.88-1.46-8.55-2.23a55.88,55.88,0,0,1-6.87-2.41,27.21,27.21,0,0,1-10.51-7.66,15.29,15.29,0,0,1-1-19.26q2.94-4.46,9.71-8.38a34.86,34.86,0,0,1-9.36-10.51,26,26,0,0,1-3.48-13.19,26.52,26.52,0,0,1,3.21-12.75,33.43,33.43,0,0,1,8.83-10.43,43.84,43.84,0,0,1,13.1-7,48.91,48.91,0,0,1,16-2.59c.6,0,1.67.07,3.21.18s3,.3,4.46.54q.54-5,1.69-10.61a46.74,46.74,0,0,1,3.48-10.52,23.85,23.85,0,0,1,6.24-8.2,16.8,16.8,0,0,1,10.16-3.65h1.07q6.42,0,9.54,4.28a16.48,16.48,0,0,1,3.12,10A18.16,18.16,0,0,1,382.76,198.94Zm-34.58,71.48a10,10,0,0,0,5.61-5.53,23.67,23.67,0,0,0,2-10.33A46.1,46.1,0,0,0,353.71,241a53.56,53.56,0,0,0-3.75-8.74,32.42,32.42,0,0,0-4.72-6.68,25,25,0,0,0-5.26-4.37,10.33,10.33,0,0,0-5.35-1.61,9.9,9.9,0,0,0-2.32.36c-2.49.71-4.4,2.53-5.7,5.44a25.28,25.28,0,0,0-2,10.43,45.85,45.85,0,0,0,2.14,13.55,42.16,42.16,0,0,0,3.65,8.55,41.32,41.32,0,0,0,4.72,6.78,21.38,21.38,0,0,0,5.26,4.45,10.8,10.8,0,0,0,5.44,1.61,6.44,6.44,0,0,0,1.07-.09C347.29,270.63,347.7,270.54,348.18,270.42Z"/><path class="cls-2" d="M251.41,193.93a.18.18,0,0,1,.1,0,136.24,136.24,0,0,1-12-18.39,198.32,198.32,0,0,1-11.32-24.26c-.16-.41-.29-.81-.46-1.22l-21.36,6.28-.15,0c4.63,12.85,9.72,25.62,17,37.19,1.28,2,2.65,4,4.07,6,.18-.13.34-.28.52-.39a28.56,28.56,0,0,1,10.66-4.58A43.53,43.53,0,0,1,251.41,193.93Z"/><path class="cls-2" d="M302.13,165.87c-1.59-13.57-5.62-26.72-10.07-39.63l-.13.06-20.59,8.48c.13.43.28.83.41,1.25a199.94,199.94,0,0,1,6.37,26,133.08,133.08,0,0,1,2.16,22.3,52.24,52.24,0,0,1-2.1,16.09,21.86,21.86,0,0,1-1,2.45c.2.14.41.24.6.37-1.4,2.62-3.19,4.25-5.37,4.87a9,9,0,0,1-6.93-1.25c-.44-.25-.89-.55-1.33-.85a4.77,4.77,0,0,0-.62-.28q-4-1.46-9.18,1.22a17.84,17.84,0,0,0-7.82,8.61l-.13.25-.37,1c-.15.4-.27.83-.4,1.27.66.45,1.3.94,2,1.38a20.73,20.73,0,0,0,4,2c4.79,1.82,10.1,1.86,15.32,1a55.92,55.92,0,0,0,8.82-2.37v0a52.68,52.68,0,0,0,12.42-5.56,27.49,27.49,0,0,0,9.26-9.12,21.15,21.15,0,0,0,1.87-4.09C303,189.93,303.53,177.7,302.13,165.87Z"/><path class="cls-3" d="M315.59,128.8a78.92,78.92,0,0,0-2.21-9.22L300.59,75.5c-2.44-8.4-4.95-17-9.89-24.18-6.89-10.1-18.64-16.91-30.86-17.13-9.72-.18-19,3.57-28,7.24l-46.54,19c-6.68,2.73-12.7,5.06-18.1,10A41,41,0,0,0,156.71,85.5a39.34,39.34,0,0,0-2.54,20.32c1.32,8.92,5.63,17.08,9.86,25l22.62,42.46c3.06,5.74,6.5,11.86,12.39,14.62,7.55,3.55,16.4.43,24.13-2.7l75.4-30.51c5.47-2.22,11.25-4.68,14.58-9.56S316.55,134.61,315.59,128.8Z"/><path class="cls-2" d="M275.44,93.52C269.11,83.43,261,74.22,251,67.66a20.38,20.38,0,0,0-4-2c-7.56-2.88-16.4-1.34-24.15,1.41v0c-8.37,2.65-17.23,7.11-21.67,14.68a20.24,20.24,0,0,0-1.86,4.09c-3.7,11.38-4.22,23.62-2.84,35.45a140.72,140.72,0,0,0,3.72,19.06l21.74-7.87c-.54-2.48-1-4.93-1.44-7.36a132.88,132.88,0,0,1-2.15-22.3,51.91,51.91,0,0,1,2.1-16.08q1.81-5.46,5.19-7.19,4-1.42,9.47,2.09a51.65,51.65,0,0,1,11.71,11.22,132.85,132.85,0,0,1,12.3,18.73c1.12,2,2.22,4.12,3.29,6.25l21.72-7.86A140.66,140.66,0,0,0,275.44,93.52Z"/><path class="cls-2" d="M163.48,81.77a46.67,46.67,0,0,0-14.6-13.28,41,41,0,0,0-20.18-5.36q-12.16,0-20.06,5.48a42.34,42.34,0,0,0-12.77,14l-.16-19.5-3.64-2.68a87.92,87.92,0,0,1-20,7.31,102.62,102.62,0,0,1-24.88,2.93v4.38q3.16,0,6.09,4t2.93,11.09V231.77q0,7.06-3,11.08t-6.21,4v4.38h57.75v-4.38c-2,0-3.94-1.19-6-3.54s-3-5.89-3-10.6V180.83a39.11,39.11,0,0,0,9.26,5.24,35.44,35.44,0,0,0,12.18,2.32h1q14.37,0,25.1-5.73A53.52,53.52,0,0,0,161,167.55a66.67,66.67,0,0,0,10.6-21.2,83.56,83.56,0,0,0,3.53-24,81.59,81.59,0,0,0-2.92-21.81A59,59,0,0,0,163.48,81.77Zm-29.4,56.3a103.44,103.44,0,0,1-4.78,20,51.58,51.58,0,0,1-7.6,14.5q-4.42,5.61-10.3,5.6a8.82,8.82,0,0,1-6.87-3.41,27.37,27.37,0,0,1-4.9-9.14,67.8,67.8,0,0,1-2.94-13,114.65,114.65,0,0,1-1-15.36,155.12,155.12,0,0,1,1.59-22.05,122.47,122.47,0,0,1,4.54-20.23,50.56,50.56,0,0,1,7.23-14.86q4.29-5.73,9.93-5.73h1.22a10.54,10.54,0,0,1,6.87,4,27.49,27.49,0,0,1,4.78,9.26,76,76,0,0,1,2.82,13.16,119,119,0,0,1,1,15.48A153.49,153.49,0,0,1,134.08,138.07Z"/></svg>