<svg id="Livello_1" data-name="Livello 1" xmlns="http://www.w3.org/2000/svg" xmlns:xlink="http://www.w3.org/1999/xlink" viewBox="0 0 4093.02 4011.61"><defs><style>.cls-1{fill:none;}.cls-2{fill:#003745;}.cls-3{fill:#ff2030;}.cls-4{fill:url(#Nuovo_pattern_4);}</style><pattern id="Nuovo_pattern_4" data-name="Nuovo pattern 4" width="240.71" height="195.1" patternTransform="translate(-2930.88 -2281.17)" patternUnits="userSpaceOnUse" viewBox="0 0 240.71 195.1"><rect class="cls-1" width="240.71" height="195.1"/><path class="cls-2" d="M282.74,143.94a46.83,46.83,0,0,1-3.88,12,47.9,47.9,0,0,1-7.77,11.57,38.35,38.35,0,0,1-10.74,8.37,30.68,30.68,0,0,1-13,3.43A30.13,30.13,0,0,1,233,176.1l-.51-.24a20.43,20.43,0,0,1-5.74-4.21,22.69,22.69,0,0,1-3.51-5l-12.83,26.91q-1.75,3.66-1,6.25c.47,1.72,1.21,2.83,2.22,3.31l-1.08,2.27L180.53,191.1l1.08-2.28c1.1.53,2.51.34,4.22-.54a10.32,10.32,0,0,0,4.32-5l35-73.39a10.65,10.65,0,0,0,1.22-6.47c-.34-1.88-1.07-3.07-2.16-3.59l1.08-2.28a59,59,0,0,0,13.62,4.64,50.59,50.59,0,0,0,12.17,1.15l1.22,2.29-4.74,10.14a24.37,24.37,0,0,1,10.09-4.1,19.72,19.72,0,0,1,11.75,2.12,23.59,23.59,0,0,1,9.14,7.77,26.82,26.82,0,0,1,4.28,10.49A33.74,33.74,0,0,1,282.74,143.94Zm-22.84-.89a67.85,67.85,0,0,0,3.32-8.26,44.18,44.18,0,0,0,1.79-7.52,15.67,15.67,0,0,0-.19-6,6.06,6.06,0,0,0-2.56-3.78l-.64-.3q-2.92-1.4-6.56.51a29.17,29.17,0,0,0-7.43,5.92,70.91,70.91,0,0,0-7.35,9.36A89.11,89.11,0,0,0,234,144a66.19,66.19,0,0,0-3.29,8.2,39.42,39.42,0,0,0-1.7,7.49,15.85,15.85,0,0,0,.28,5.95,5.07,5.07,0,0,0,2.72,3.46,7.39,7.39,0,0,0,6.72-.35,29.52,29.52,0,0,0,7.53-5.64,58.91,58.91,0,0,0,7.42-9.18A87.83,87.83,0,0,0,259.9,143.05Z"/><path class="cls-2" d="M52.82,220.89a48.13,48.13,0,0,0,1.59-20.45,12,12,0,0,0-.69-2.5c-1.7-4.35-5.78-7.53-10-9.77h0c-4.37-2.56-9.71-4.61-14.66-3.58a12.24,12.24,0,0,0-2.47.79,48.26,48.26,0,0,0-16.25,12.52,79.35,79.35,0,0,0-6.7,9l11.78,6.24q1.27-1.79,2.59-3.47a76.6,76.6,0,0,1,8.69-9.56,30,30,0,0,1,7.69-5.33c2-.89,3.72-1.08,5.08-.56q2.18,1.16,2.78,4.85a29.76,29.76,0,0,1-.26,9.35,76.3,76.3,0,0,1-3.24,12.51c-.43,1.27-.9,2.54-1.39,3.83L49.17,231A80.16,80.16,0,0,0,52.82,220.89Z"/><path class="cls-2" d="M42,143.94a46.83,46.83,0,0,1-3.88,12,47.9,47.9,0,0,1-7.77,11.57,38.45,38.45,0,0,1-10.73,8.37,30.72,30.72,0,0,1-13,3.43A30.19,30.19,0,0,1-7.74,176.1l-.51-.24A20.58,20.58,0,0,1-14,171.65a22.31,22.31,0,0,1-3.5-5l-12.84,26.91c-1.17,2.44-1.51,4.52-1,6.25s1.21,2.83,2.22,3.31l-1.09,2.27L-60.18,191.1l1.09-2.28c1.09.53,2.5.34,4.21-.54a10.32,10.32,0,0,0,4.32-5l35-73.39a10.74,10.74,0,0,0,1.23-6.47c-.35-1.88-1.07-3.07-2.17-3.59l1.09-2.28a58.83,58.83,0,0,0,13.62,4.64,50.51,50.51,0,0,0,12.16,1.15l1.22,2.29L6.88,115.77A24.33,24.33,0,0,1,17,111.67a19.75,19.75,0,0,1,11.76,2.12,23.56,23.56,0,0,1,9.13,7.77,26.82,26.82,0,0,1,4.28,10.49A33.74,33.74,0,0,1,42,143.94Zm-22.84-.89a67.85,67.85,0,0,0,3.32-8.26,42.36,42.36,0,0,0,1.79-7.52,15.89,15.89,0,0,0-.18-6,6.07,6.07,0,0,0-2.57-3.78l-.63-.3q-2.93-1.4-6.57.51a29,29,0,0,0-7.42,5.92A70.12,70.12,0,0,0-.43,133a89.11,89.11,0,0,0-6.28,11,67.78,67.78,0,0,0-3.29,8.2,40.2,40.2,0,0,0-1.7,7.49,15.83,15.83,0,0,0,.29,5.95,5.06,5.06,0,0,0,2.71,3.46A7.41,7.41,0,0,0-2,168.78a29.49,29.49,0,0,0,7.52-5.64A58.91,58.91,0,0,0,13,154,87.83,87.83,0,0,0,19.19,143.05Z"/><path class="cls-3" d="M230,11.4A44.52,44.52,0,0,0,227,15.92L213.08,38.46c-2.64,4.3-5.33,8.69-6.51,13.6a22.6,22.6,0,0,0,4.64,19.82c3.69,4.22,8.9,6.75,14,9.17l26.17,12.51c3.75,1.8,7.08,3.46,11.26,3.88a23.57,23.57,0,0,0,10.49-1.38,22.67,22.67,0,0,0,9.67-6.78c3.3-4,5.12-9,6.88-13.92L299,49.25c1.27-3.53,2.55-7.37,1.45-11-1.41-4.6-6.18-7.17-10.51-9.26L247.72,8.63c-3.07-1.48-6.37-3-9.74-2.53S232.15,8.74,230,11.4Z"/><path class="cls-2" d="M230.52,42.23a48.29,48.29,0,0,0-1.59,20.45,12.32,12.32,0,0,0,.69,2.5c1.7,4.34,5.78,7.52,10,9.77h0c4.37,2.55,9.71,4.61,14.67,3.57a11.19,11.19,0,0,0,2.46-.79A48.14,48.14,0,0,0,273,65.22a80.14,80.14,0,0,0,6.7-9L267.88,50c-.85,1.19-1.71,2.35-2.59,3.46A75.9,75.9,0,0,1,256.6,63a29.7,29.7,0,0,1-7.69,5.33c-2,.9-3.72,1.09-5.08.57-1.44-.78-2.37-2.39-2.78-4.85a29.76,29.76,0,0,1,.26-9.35,77.32,77.32,0,0,1,3.24-12.51c.43-1.27.9-2.55,1.39-3.83l-11.77-6.24A80.3,80.3,0,0,0,230.52,42.23Z"/><path class="cls-2" d="M282.74-51.16a46.83,46.83,0,0,1-3.88,12,47.9,47.9,0,0,1-7.77,11.57,38.35,38.35,0,0,1-10.74,8.37,30.82,30.82,0,0,1-13,3.43A30.13,30.13,0,0,1,233-19l-.51-.24a20.43,20.43,0,0,1-5.74-4.21,22.69,22.69,0,0,1-3.51-5L210.38-1.55q-1.75,3.66-1,6.25T211.55,8l-1.08,2.28L180.53-4l1.08-2.27q1.65.78,4.22-.55a10.24,10.24,0,0,0,4.32-5l35-73.4a10.64,10.64,0,0,0,1.22-6.47c-.34-1.87-1.07-3.07-2.16-3.59l1.08-2.27a59.47,59.47,0,0,0,13.62,4.64,50.59,50.59,0,0,0,12.17,1.15l1.22,2.29-4.74,10.14a24.37,24.37,0,0,1,10.09-4.1q5.44-.9,11.75,2.12a23.43,23.43,0,0,1,9.14,7.77A26.82,26.82,0,0,1,282.84-63,33.74,33.74,0,0,1,282.74-51.16ZM259.9-52a68,68,0,0,0,3.32-8.27A44,44,0,0,0,265-67.84a15.61,15.61,0,0,0-.19-6,6.06,6.06,0,0,0-2.56-3.78l-.64-.3q-2.92-1.39-6.56.51a29,29,0,0,0-7.43,5.92,70.91,70.91,0,0,0-7.35,9.36,89.11,89.11,0,0,0-6.28,11,66.19,66.19,0,0,0-3.29,8.2,39.33,39.33,0,0,0-1.7,7.48,15.82,15.82,0,0,0,.28,5.95A5.09,5.09,0,0,0,232-26a7.39,7.39,0,0,0,6.72-.36A29.47,29.47,0,0,0,246.26-32a58.91,58.91,0,0,0,7.42-9.18A88.56,88.56,0,0,0,259.9-52Z"/><path class="cls-2" d="M173.17,123.34a48.19,48.19,0,0,0,1.59-20.46,11.46,11.46,0,0,0-.69-2.49c-1.7-4.35-5.78-7.53-10-9.77h0C159.74,88.05,154.4,86,149.45,87a11.83,11.83,0,0,0-2.47.79,48.13,48.13,0,0,0-16.24,12.52,81.47,81.47,0,0,0-6.71,9l11.78,6.24c.86-1.18,1.72-2.34,2.59-3.46a77.4,77.4,0,0,1,8.7-9.56,29.84,29.84,0,0,1,7.68-5.33,6.73,6.73,0,0,1,5.08-.57q2.17,1.17,2.78,4.86a30,30,0,0,1-.25,9.35,77.85,77.85,0,0,1-3.24,12.51c-.43,1.26-.9,2.54-1.4,3.83l11.77,6.23A80.16,80.16,0,0,0,173.17,123.34Z"/><path class="cls-3" d="M109.69,109a47.43,47.43,0,0,0-3.09,4.51L92.73,136c-2.65,4.3-5.33,8.69-6.51,13.6a22.57,22.57,0,0,0,4.64,19.82c3.69,4.22,8.9,6.75,14,9.17L131,191.11c3.76,1.8,7.09,3.46,11.27,3.88a23.44,23.44,0,0,0,10.49-1.38,22.65,22.65,0,0,0,9.67-6.78c3.3-4,5.12-9,6.87-13.92l9.38-26.11c1.27-3.53,2.55-7.37,1.45-11-1.41-4.6-6.17-7.17-10.5-9.26l-42.25-20.4c-3.06-1.48-6.36-3-9.73-2.52S111.8,106.29,109.69,109Z"/><path class="cls-2" d="M110.17,139.78a48.13,48.13,0,0,0-1.59,20.45,12.14,12.14,0,0,0,.69,2.5c1.7,4.34,5.78,7.52,10,9.77h0c4.38,2.55,9.72,4.61,14.67,3.57a11.79,11.79,0,0,0,2.47-.78,48.29,48.29,0,0,0,16.25-12.53,80.14,80.14,0,0,0,6.7-9l-11.78-6.24q-1.28,1.78-2.59,3.47a77.25,77.25,0,0,1-8.7,9.55,30,30,0,0,1-7.68,5.34q-3,1.34-5.08.56c-1.45-.78-2.38-2.39-2.78-4.85a29.76,29.76,0,0,1,.26-9.35,75.3,75.3,0,0,1,3.24-12.51c.43-1.27.9-2.55,1.39-3.83l-11.77-6.23A80.16,80.16,0,0,0,110.17,139.78Z"/><path class="cls-2" d="M162.38,46.39a46.45,46.45,0,0,1-3.88,12A47.86,47.86,0,0,1,150.74,70,38.35,38.35,0,0,1,140,78.36a30.68,30.68,0,0,1-13,3.43,30.19,30.19,0,0,1-14.43-3.24l-.5-.24a20.49,20.49,0,0,1-5.75-4.21,23,23,0,0,1-3.5-5L90,96q-1.74,3.66-1,6.25a4.81,4.81,0,0,0,2.22,3.31l-1.08,2.27L60.18,93.55l1.08-2.28c1.1.53,2.5.34,4.22-.55a10.34,10.34,0,0,0,4.32-5l35-73.39A10.62,10.62,0,0,0,106,5.86C105.69,4,105,2.8,103.88,2.27L105,0a59,59,0,0,0,13.62,4.64,50.59,50.59,0,0,0,12.17,1.15L132,8.08l-4.74,10.14a24.37,24.37,0,0,1,10.09-4.1,19.72,19.72,0,0,1,11.75,2.12A23.59,23.59,0,0,1,158.21,24a26.82,26.82,0,0,1,4.28,10.49A33.75,33.75,0,0,1,162.38,46.39Zm-22.83-.89a67.25,67.25,0,0,0,3.31-8.27,43,43,0,0,0,1.8-7.51,15.86,15.86,0,0,0-.19-6A6.07,6.07,0,0,0,141.9,20l-.63-.3q-2.93-1.39-6.57.51a28.92,28.92,0,0,0-7.42,5.92,70.09,70.09,0,0,0-7.35,9.36,87.85,87.85,0,0,0-6.28,11,64.66,64.66,0,0,0-3.29,8.2,38.5,38.5,0,0,0-1.7,7.49,15.64,15.64,0,0,0,.28,6,5,5,0,0,0,2.72,3.46,7.39,7.39,0,0,0,6.72-.36,29.23,29.23,0,0,0,7.53-5.63,59.49,59.49,0,0,0,7.42-9.18A89.12,89.12,0,0,0,139.55,45.5Z"/><path class="cls-2" d="M52.82,25.78A48.13,48.13,0,0,0,54.41,5.33a12.05,12.05,0,0,0-.69-2.49c-1.7-4.35-5.78-7.53-10-9.77v0c-4.37-2.55-9.71-4.6-14.66-3.57a11.64,11.64,0,0,0-2.47.79A48.26,48.26,0,0,0,10.38,2.79a80.14,80.14,0,0,0-6.7,9L15.46,18c.85-1.18,1.71-2.35,2.59-3.46A75.9,75.9,0,0,1,26.74,5,29.7,29.7,0,0,1,34.43-.35a6.72,6.72,0,0,1,5.08-.57c1.45.78,2.38,2.39,2.78,4.86A29.77,29.77,0,0,1,42,13.29,76.81,76.81,0,0,1,38.79,25.8c-.43,1.26-.9,2.54-1.39,3.82l11.77,6.24A79.74,79.74,0,0,0,52.82,25.78Z"/><path class="cls-3" d="M-10.67,11.4a46.22,46.22,0,0,0-3.08,4.52L-27.63,38.46c-2.64,4.3-5.33,8.69-6.5,13.6a22.57,22.57,0,0,0,4.64,19.82c3.69,4.22,8.89,6.75,14,9.17L10.63,93.56c3.75,1.8,7.08,3.46,11.26,3.88a23.63,23.63,0,0,0,10.5-1.38,22.79,22.79,0,0,0,9.67-6.78c3.29-4,5.11-9,6.87-13.92l9.38-26.11c1.27-3.53,2.55-7.37,1.45-11-1.41-4.6-6.17-7.17-10.51-9.26L7,8.63C3.94,7.15.65,5.63-2.72,6.1S-8.55,8.74-10.67,11.4Z"/><path class="cls-2" d="M-10.18,42.23a48.13,48.13,0,0,0-1.59,20.45,11.15,11.15,0,0,0,.69,2.5c1.7,4.34,5.78,7.52,10,9.77h0c4.38,2.55,9.72,4.61,14.67,3.57A11.44,11.44,0,0,0,16,77.74,48.1,48.1,0,0,0,32.25,65.22a81.47,81.47,0,0,0,6.71-9L27.17,50c-.85,1.19-1.71,2.35-2.58,3.46A76.68,76.68,0,0,1,15.89,63a29.84,29.84,0,0,1-7.68,5.33c-2,.9-3.72,1.09-5.09.57C1.68,68.15.75,66.54.34,64.08A30.06,30.06,0,0,1,.6,54.73,77.32,77.32,0,0,1,3.84,42.22c.43-1.27.9-2.55,1.4-3.83L-6.53,32.15A78.76,78.76,0,0,0-10.18,42.23Z"/><path class="cls-2" d="M42-51.16a46.83,46.83,0,0,1-3.88,12,47.9,47.9,0,0,1-7.77,11.57,38.45,38.45,0,0,1-10.73,8.37,30.86,30.86,0,0,1-13,3.43A30.19,30.19,0,0,1-7.74-19l-.51-.24A20.58,20.58,0,0,1-14-23.45a22.31,22.31,0,0,1-3.5-5L-30.33-1.55C-31.5.89-31.84,3-31.37,4.7s1.21,2.82,2.22,3.3l-1.09,2.28L-60.18-4l1.09-2.27c1.09.52,2.5.34,4.21-.55a10.24,10.24,0,0,0,4.32-5l35-73.4a10.73,10.73,0,0,0,1.23-6.47c-.35-1.87-1.07-3.07-2.17-3.59l1.09-2.27A59.3,59.3,0,0,0-1.77-92.91a50.51,50.51,0,0,0,12.16,1.15l1.22,2.29L6.88-79.33A24.33,24.33,0,0,1,17-83.43c3.64-.6,7.55.11,11.76,2.12a23.39,23.39,0,0,1,9.13,7.77A26.82,26.82,0,0,1,42.13-63,33.74,33.74,0,0,1,42-51.16ZM19.19-52a68,68,0,0,0,3.32-8.27,42.16,42.16,0,0,0,1.79-7.52,15.83,15.83,0,0,0-.18-6,6.07,6.07,0,0,0-2.57-3.78l-.63-.3q-2.93-1.39-6.57.51a28.75,28.75,0,0,0-7.42,5.92A70.12,70.12,0,0,0-.43-62.11a89.11,89.11,0,0,0-6.28,11A67.78,67.78,0,0,0-10-42.87a40.11,40.11,0,0,0-1.7,7.48,15.8,15.8,0,0,0,.29,5.95A5.08,5.08,0,0,0-8.7-26,7.41,7.41,0,0,0-2-26.33,29.43,29.43,0,0,0,5.55-32,58.91,58.91,0,0,0,13-41.14,88.56,88.56,0,0,0,19.19-52Z"/></pattern></defs><rect class="cls-4" width="4093.02" height="4011.61"/></svg>