<svg id="Livello_1" data-name="Livello 1" xmlns="http://www.w3.org/2000/svg" viewBox="0 0 249.45 249.45"><defs><style>.cls-1{fill:#ff2030;}.cls-2{fill:#003745;}.cls-3{fill:none;}.cls-4{fill:#f9e2b0;}</style></defs><rect class="cls-1" width="249.45" height="249.45" transform="translate(249.45 0) rotate(90)"/><path class="cls-2" d="M85.18,158.19a58.77,58.77,0,0,0,2.71,6.4l14.58,30.31c2.77,5.78,5.63,11.66,10.07,16.29a28.68,28.68,0,0,0,24.37,8.65c7.05-1.05,13.33-4.88,19.39-8.63l31.34-19.39c4.5-2.78,8.57-5.19,11.88-9.38a30,30,0,0,0,5.73-12.16,28.82,28.82,0,0,0-.61-15c-2-6.29-6.14-11.66-10.16-16.9l-21.49-28c-2.9-3.78-6.13-7.79-10.72-9.07-5.89-1.65-11.9,1.67-17.11,4.87L94.35,137.39c-3.69,2.26-7.57,4.74-9.39,8.67S83.78,154.1,85.18,158.19Z"/><path class="cls-3" d="M139.24,175.88a37.71,37.71,0,0,0,9.82,6.7c2.91,1.26,5.27,1.37,7.09.36q2.23-1.65,2.89-5.82a38,38,0,0,0-.43-11.88,97,97,0,0,0-4.25-15.86c-.59-1.7-1.24-3.42-1.93-5.15L125,159.71c1,1.41,2.08,2.79,3.14,4.12A96.66,96.66,0,0,0,139.24,175.88Z"/><path class="cls-4" d="M118.47,178.84c5.79,6.52,12.74,12.21,20.77,15.74a15.06,15.06,0,0,0,3.15,1c5.81,1.17,12-1,17.28-3.94h0c5.73-2.92,11.6-7.22,13.89-13.23a14.46,14.46,0,0,0,.85-3.18,61,61,0,0,0-2.24-26,102.19,102.19,0,0,0-5-13.33l-14.77,8.31c.69,1.73,1.34,3.45,1.93,5.15a97,97,0,0,1,4.25,15.86,38,38,0,0,1,.43,11.88q-.66,4.17-2.89,5.82c-1.82,1-4.18.9-7.09-.36a37.71,37.71,0,0,1-9.82-6.7,96.66,96.66,0,0,1-11.15-12c-1.06-1.33-2.11-2.71-3.14-4.12L110.2,168A102.12,102.12,0,0,0,118.47,178.84Z"/><path class="cls-3" d="M88.18,103.81a15,15,0,0,1,.85-3.18c2.3-6,8.16-10.31,13.9-13.23h0a42.67,42.67,0,0,1,4.52-2.17,111.42,111.42,0,0,0,1-15,86.48,86.48,0,0,0-.72-11.34,55.47,55.47,0,0,0-2.07-9.65,20.08,20.08,0,0,0-3.5-6.78,7.71,7.71,0,0,0-5-2.95h-.9c-2.76,0-5.18,1.4-7.28,4.2a37.09,37.09,0,0,0-5.3,10.89,89.28,89.28,0,0,0-3.32,14.82A113.39,113.39,0,0,0,79.21,85.6a84.54,84.54,0,0,0,.72,11.25,49.94,49.94,0,0,0,2.15,9.55,20.2,20.2,0,0,0,3.6,6.7,7.46,7.46,0,0,0,2.08,1.71A53.25,53.25,0,0,1,88.18,103.81Z"/><path class="cls-3" d="M127.52,107.18c-.15.21-.29.44-.45.65a39,39,0,0,1-13,11.07,33.43,33.43,0,0,1-8.19,3.06c.68,2.45,1.46,5,2.4,7.68.6,1.7,1.25,3.42,1.93,5.15l27.49-15.48c-1-1.41-2.08-2.79-3.14-4.12C132.12,112.18,129.8,109.54,127.52,107.18Z"/><path class="cls-3" d="M104.67,98.27a11.62,11.62,0,0,0-.92,2.78l.08-.18C104.13,100,104.4,99.15,104.67,98.27Z"/><path class="cls-2" d="M105.84,122a43.54,43.54,0,0,1-10.2,1.14h-.71a29.41,29.41,0,0,1-6.27-.85,73.31,73.31,0,0,0,1.76,7.52,100.82,100.82,0,0,0,5,13.33l14.76-8.31c-.68-1.73-1.33-3.45-1.93-5.15C107.3,127,106.52,124.41,105.84,122Z"/><path class="cls-2" d="M144.14,100.18A71.54,71.54,0,0,0,135,91.55a54.39,54.39,0,0,0-11.67-7.11,15.16,15.16,0,0,0-3.14-1c-4.22-.85-8.64.08-12.77,1.77a42.67,42.67,0,0,0-4.52,2.17h0c-5.74,2.92-11.6,7.22-13.9,13.23a15,15,0,0,0-.85,3.18,53.25,53.25,0,0,0-.42,11,6,6,0,0,0,2.95.79q4.31,0,7.55-4.11a37.33,37.33,0,0,0,5.49-10.44,11.62,11.62,0,0,1,.92-2.78,6.21,6.21,0,0,1,1.78-2.19q2.73-1.52,7.1.36a37.87,37.87,0,0,1,9.82,6.7c1.36,1.21,2.75,2.58,4.15,4,2.28,2.36,4.6,5,7,8,1.06,1.33,2.1,2.71,3.14,4.12L152.4,111A103.06,103.06,0,0,0,144.14,100.18Z"/><path class="cls-4" d="M120.22,83.47a15.16,15.16,0,0,1,3.14,1A54.39,54.39,0,0,1,135,91.55a61.1,61.1,0,0,0,2.4-16.85,59.79,59.79,0,0,0-2.14-16A43.17,43.17,0,0,0,128.88,45a34.3,34.3,0,0,0-10.7-9.74,30.1,30.1,0,0,0-14.79-3.93q-8.91,0-14.7,4a30.86,30.86,0,0,0-9.36,10.27L79.21,31.3l-2.66-2A64.63,64.63,0,0,1,61.9,34.7a75.64,75.64,0,0,1-18.23,2.14v3.21c1.55,0,3,1,4.46,3s2.15,4.68,2.15,8.13V154.89q0,5.18-2.24,8.13T43.49,166v3.22H85.82V166q-2.14,0-4.38-2.58t-2.23-7.77V117.56A28.84,28.84,0,0,0,86,121.4a20.7,20.7,0,0,0,2.66.85,29.41,29.41,0,0,0,6.27.85h.71a43.54,43.54,0,0,0,10.2-1.14A33.43,33.43,0,0,0,114,118.9a39,39,0,0,0,13-11.07c.16-.21.3-.44.45-.65-1.4-1.46-2.79-2.83-4.15-4a37.87,37.87,0,0,0-9.82-6.7q-4.36-1.87-7.1-.36a6.21,6.21,0,0,0-1.78,2.19c-.27.88-.54,1.76-.84,2.6l-.08.18a37.33,37.33,0,0,1-5.49,10.44Q95,115.6,90.71,115.6a6,6,0,0,1-2.95-.79,7.46,7.46,0,0,1-2.08-1.71,20.2,20.2,0,0,1-3.6-6.7,49.94,49.94,0,0,1-2.15-9.55,84.54,84.54,0,0,1-.72-11.25,113.39,113.39,0,0,1,1.17-16.17A89.28,89.28,0,0,1,83.7,54.61,37.09,37.09,0,0,1,89,43.72c2.1-2.8,4.52-4.2,7.28-4.2h.9a7.71,7.71,0,0,1,5,2.95,20.08,20.08,0,0,1,3.5,6.78,55.47,55.47,0,0,1,2.07,9.65,86.48,86.48,0,0,1,.72,11.34,111.42,111.42,0,0,1-1,15C111.58,83.55,116,82.62,120.22,83.47Z"/></svg>